<?xml version="1.0" encoding="iso-8859-1"?>
<!-- Generator: Adobe Illustrator 18.0.0, SVG Export Plug-In . SVG Version: 6.00 Build 0)  -->
<!DOCTYPE svg PUBLIC "-//W3C//DTD SVG 1.1//EN" "http://www.w3.org/Graphics/SVG/1.1/DTD/svg11.dtd">
<svg version="1.1" id="Capa_1" xmlns="http://www.w3.org/2000/svg" xmlns:xlink="http://www.w3.org/1999/xlink" x="0px" y="0px"
	 viewBox="0 0 481.479 481.479" style="enable-background:new 0 0 481.479 481.479;" xml:space="preserve">
<path d="M390.155,135.561c1.179-5.226,1.911-10.61,1.911-16.201c0-40.785-33.075-73.844-73.844-73.844
	c-15.421,0-29.728,4.748-41.581,12.841C260.104,23.864,224.943,0,184.127,0C127.41,0,81.447,45.978,81.447,102.679
	c0,11.917,2.119,23.291,5.863,33.935c-29.489,7.535-51.38,34.046-51.38,65.877c0,37.678,30.557,68.219,68.219,68.219h90.061
	l-22.813,75.038c-1.02,3.346-0.382,6.993,1.705,9.798c2.086,2.821,5.385,4.477,8.889,4.477h36.007l-7.457,117.019
	c-0.127,1.99,1.18,3.808,3.106,4.301c1.928,0.51,3.951-0.43,4.813-2.23l69.637-144.994c1.657-3.424,1.418-7.455-0.605-10.674
	c-2.023-3.217-5.561-5.178-9.352-5.178h-23.324l14.449-47.556H377.33c37.677,0,68.219-30.541,68.219-68.219
	C445.548,169.208,421.682,141.584,390.155,135.561z"/>
<g>
</g>
<g>
</g>
<g>
</g>
<g>
</g>
<g>
</g>
<g>
</g>
<g>
</g>
<g>
</g>
<g>
</g>
<g>
</g>
<g>
</g>
<g>
</g>
<g>
</g>
<g>
</g>
<g>
</g>
</svg>
