<?xml version="1.0" encoding="iso-8859-1"?>
<!-- Generator: Adobe Illustrator 16.0.0, SVG Export Plug-In . SVG Version: 6.00 Build 0)  -->
<!DOCTYPE svg PUBLIC "-//W3C//DTD SVG 1.1//EN" "http://www.w3.org/Graphics/SVG/1.1/DTD/svg11.dtd">
<svg version="1.1" id="Capa_1" xmlns="http://www.w3.org/2000/svg" xmlns:xlink="http://www.w3.org/1999/xlink" x="0px" y="0px"
	 width="46px" height="46px" viewBox="0 0 46 46" style="enable-background:new 0 0 46 46;" xml:space="preserve">
<g>
	<path d="M39.354,21.998c0.07-0.401,0.114-0.812,0.114-1.232c0-3.926-3.183-7.108-7.108-7.108c-0.855,0-1.674,0.159-2.436,0.437
		c-2.314-3.588-6.337-5.97-10.924-5.97c-7.18,0-13,5.82-13,13c0,0.337,0.025,0.668,0.051,0.999C2.576,22.996,0,26.131,0,29.875
		c0,4.418,3.582,8,8,8h30c4.418,0,8-3.582,8-8C46,25.92,43.126,22.643,39.354,21.998z"/>
</g>
<g>
</g>
<g>
</g>
<g>
</g>
<g>
</g>
<g>
</g>
<g>
</g>
<g>
</g>
<g>
</g>
<g>
</g>
<g>
</g>
<g>
</g>
<g>
</g>
<g>
</g>
<g>
</g>
<g>
</g>
</svg>
