<?xml version="1.0" encoding="iso-8859-1"?>
<!-- Generator: Adobe Illustrator 18.0.0, SVG Export Plug-In . SVG Version: 6.00 Build 0)  -->
<!DOCTYPE svg PUBLIC "-//W3C//DTD SVG 1.1//EN" "http://www.w3.org/Graphics/SVG/1.1/DTD/svg11.dtd">
<svg version="1.1" id="Capa_1" xmlns="http://www.w3.org/2000/svg" xmlns:xlink="http://www.w3.org/1999/xlink" x="0px" y="0px"
	 viewBox="0 0 361.191 361.191" style="enable-background:new 0 0 361.191 361.191; fill: #fff" xml:space="preserve">
<g>
	<path d="M280.141,72.051c-10.977-28.277-38.407-48.311-70.555-48.311c-3.064,0-6.081,0.193-9.057,0.531
		C186.714,9.357,166.95,0,145.001,0c-40.902,0-74.2,32.457-75.584,73.053c-35.924,5.879-63.334,37.053-63.334,74.615
		c0,41.801,33.867,75.67,75.658,75.67H279.45c41.788,0,75.658-33.869,75.658-75.67C355.108,106.111,321.602,72.395,280.141,72.051z"
		/>
	<path d="M86.377,279.434c-4.002,11.998,1.766,24.748,12.87,28.457c11.107,3.674,23.35-3.07,27.349-15.066
		c4.003-12.008-10.286-36.238-10.286-36.238S90.377,267.43,86.377,279.434z"/>
	<path d="M235.158,279.434c-4.001,11.998,1.767,24.748,12.87,28.457c11.108,3.674,23.348-3.07,27.352-15.066
		c4.003-12.008-10.285-36.238-10.285-36.238S239.159,267.43,235.158,279.434z"/>
	<path d="M167.769,253.268c-4.001,12.041,1.765,24.75,12.87,28.461c11.108,3.713,23.349-3.029,27.351-15.074
		c4.004-11.994-10.283-36.195-10.283-36.195S171.77,241.268,167.769,253.268z"/>
	<path d="M142.752,331.721c-3.995,12.035,1.764,24.748,12.871,28.461c11.116,3.689,23.36-3.055,27.359-15.066
		c4.003-12.035-10.284-36.209-10.284-36.209S146.753,319.705,142.752,331.721z"/>
</g>
<g>
</g>
<g>
</g>
<g>
</g>
<g>
</g>
<g>
</g>
<g>
</g>
<g>
</g>
<g>
</g>
<g>
</g>
<g>
</g>
<g>
</g>
<g>
</g>
<g>
</g>
<g>
</g>
<g>
</g>
</svg>
